#N canvas 574 44 1325 1215 12;
#X obj 3 311 bang~;
#X listbox 3 357 20 0 0 0 - - - 0;
#X obj 3 377 unpack 0 0 0 0 0 0 0 0, f 11;
#X msg 460 118 \; DATA 0 0 0 0 0 0 0 0 0;
#X obj 3 334 array get DATA;
#X obj 3 552 s \$0-datav0;
#X obj 13 532 s \$0-datav1;
#X obj 23 512 s \$0-datav2;
#X obj 33 492 s \$0-datav3;
#X obj 43 472 s \$0-datav4;
#X obj 53 452 s \$0-datav5;
#X obj 63 432 s \$0-datav6;
#X obj 73 412 s \$0-datav7;
#X msg 100 47 \; DATA 0 1 1 1 1 1 1 1 1;
#X text 4 6 aData;
#X obj 304 103 tgl 19 0 enterdata empty empty -6 12 0 12 #ffc7c6 #000000 #000000 0 1;
#X obj 327 355 tgl 19 0 empty empty empty 0 -10 0 12 #fcfcfc #000000 #000000 0 1;
#X obj 224 356 r midinote;
#X floatatom 224 379 5 0 0 0 - - - 0;
#X obj 327 379 sel 0 1;
#X obj 224 476 ==;
#X obj 224 540 tgl 19 0 empty empty empty 0 -10 0 12 #fcfcfc #000000 #000000 0 1;
#X msg 327 423 1;
#X obj 256 439 spigot;
#X obj 224 402 t f f;
#X obj 224 515 t a b;
#X msg 256 538 0;
#X text 352 348 enter data;
#X obj 295 416 tgl 19 0 empty empty empty 0 -10 0 12 #fcfcfc #000000 #000000 0 1;
#X floatatom 255 476 5 0 0 0 - - - 0;
#X text 191 419 set first val;
#X obj 312 595 r thebeat;
#X obj 224 565 spigot;
#X obj 224 619 tabwrite DATA;
#X obj 327 327 r enterdata;
#X floatatom 344 623 5 0 0 0 - - - 0;
#X obj 182 539 bng 19 250 50 0 empty empty empty 0 -10 0 12 #fcfcfc #000000 #000000;
#X obj 238 591 pipe 50;
#X text 63 583 if user is slightly too early, f 21;
#X text 103 103 DATA;
#X obj 399 45 r mode;
#X obj 399 69 == 3;
#X obj 399 93 tgl 19 0 empty empty empty 0 -10 0 12 #fcfcfc #000000 #000000 0 1;
#X obj 460 70 == 6;
#X text 498 68 clear;
#X obj 460 94 sel 1;
#X obj 108 175 cnv 19 29 138 empty bt0 empty 20 12 0 12 #d8fcd8 #fcfcfc 0;
#X obj 138 175 cnv 19 29 138 empty bt1 empty 20 12 0 12 #d8fcd8 #fcfcfc 0;
#X obj 168 175 cnv 19 29 138 empty bt2 empty 20 12 0 12 #d8fcd8 #fcfcfc 0;
#X obj 198 175 cnv 19 29 138 empty bt3 empty 20 12 0 12 #d8fcd8 #fcfcfc 0;
#X obj 228 175 cnv 19 29 138 empty bt4 empty 20 12 0 12 #d8fcd8 #fcfcfc 0;
#X obj 258 175 cnv 19 29 138 empty bt5 empty 20 12 0 12 #d8fcd8 #fcfcfc 0;
#X obj 288 175 cnv 19 29 138 empty bt6 empty 20 12 0 12 #fc2828 #fcfcfc 0;
#X obj 318 175 cnv 19 29 138 empty bt7 empty 20 12 0 12 #d8fcd8 #fcfcfc 0;
#N canvas 0 22 450 278 (subpatch) 0;
#X array DATA 8 float 3;
#A 0 0 0 0 0 0 0 0 0;
#X coords 0 1 8 0 240 140 1 0 0;
#X restore 108 174 graph;
#X obj 102 128 cnv 19 29 30 empty bt0 empty 20 12 0 12 #d8fcd8 #fcfcfc 0;
#X obj 132 128 cnv 19 29 30 empty bt1 empty 20 12 0 12 #d8fcd8 #fcfcfc 0;
#X obj 162 128 cnv 19 29 30 empty bt2 empty 20 12 0 12 #d8fcd8 #fcfcfc 0;
#X obj 192 128 cnv 19 29 30 empty bt3 empty 20 12 0 12 #d8fcd8 #fcfcfc 0;
#X obj 222 128 cnv 19 29 30 empty bt4 empty 20 12 0 12 #d8fcd8 #fcfcfc 0;
#X obj 252 128 cnv 19 29 30 empty bt5 empty 20 12 0 12 #d8fcd8 #fcfcfc 0;
#X obj 282 128 cnv 19 29 30 empty bt6 empty 20 12 0 12 #fc2828 #fcfcfc 0;
#X obj 312 128 cnv 19 29 30 empty bt7 empty 20 12 0 12 #d8fcd8 #fcfcfc 0;
#X obj 134 130 tgl 26 0 empty \$0-datav1 empty 0 -10 0 12 #fcfcfc #000000 #000000 0 1;
#X obj 104 130 tgl 26 0 empty \$0-datav0 empty 0 -10 0 12 #fcfcfc #000000 #000000 0 1;
#X obj 194 130 tgl 26 0 empty \$0-datav3 empty 0 -10 0 12 #fcfcfc #000000 #000000 0 1;
#X obj 164 130 tgl 26 0 empty \$0-datav2 empty 0 -10 0 12 #fcfcfc #000000 #000000 0 1;
#X obj 254 130 tgl 26 0 empty \$0-datav5 empty 0 -10 0 12 #fcfcfc #000000 #000000 0 1;
#X obj 224 130 tgl 26 0 empty \$0-datav4 empty 0 -10 0 12 #fcfcfc #000000 #000000 0 1;
#X obj 314 130 tgl 26 0 empty \$0-datav7 empty 0 -10 0 12 #fcfcfc #000000 #000000 0 1;
#X obj 283 130 tgl 26 0 empty \$0-datav6 empty 0 -10 0 12 #fcfcfc #000000 #000000 0 1;
#X connect 0 0 4 0;
#X connect 1 0 2 0;
#X connect 2 0 5 0;
#X connect 2 1 6 0;
#X connect 2 2 7 0;
#X connect 2 3 8 0;
#X connect 2 4 9 0;
#X connect 2 5 10 0;
#X connect 2 6 11 0;
#X connect 2 7 12 0;
#X connect 4 0 1 0;
#X connect 16 0 19 0;
#X connect 16 0 32 1;
#X connect 17 0 18 0;
#X connect 18 0 24 0;
#X connect 19 0 22 0;
#X connect 20 0 25 0;
#X connect 21 0 32 0;
#X connect 22 0 28 0;
#X connect 23 0 20 1;
#X connect 23 0 29 0;
#X connect 24 0 20 0;
#X connect 24 1 23 0;
#X connect 25 0 21 0;
#X connect 25 0 36 0;
#X connect 25 1 26 0;
#X connect 26 0 28 0;
#X connect 28 0 23 1;
#X connect 31 0 33 1;
#X connect 31 0 35 0;
#X connect 32 0 37 0;
#X connect 34 0 16 0;
#X connect 37 0 33 0;
#X connect 40 0 41 0;
#X connect 40 0 43 0;
#X connect 41 0 42 0;
#X connect 42 0 15 0;
#X connect 43 0 45 0;
#X connect 45 0 3 0;
#X coords 0 -1 1 1 246 60 2 100 100;
