#N canvas 680 117 1050 790 12;
#X text 62 16 abs for Proto3;
#X obj 102 103 tgl 19 0 stst empty empty 17 7 0 10 #dfdfdf #000000 #000000 0 1;
#X msg 57 195 tempo \$1 permin;
#X floatatom 243 103 5 0 0 0 - - - 0;
#X obj 253 2 loadbang;
#X msg 253 25 103;
#X obj 24 225 metro 1 103 permin, f 19;
#X obj 312 100 bng 24 250 50 0 empty empty empty 0 -10 0 12 #fcfcfc #000000 #000000;
#N canvas 759 803 450 300 count8 0;
#X obj 30 9 inlet;
#X obj 30 32 f;
#X obj 60 32 + 1;
#X obj 60 55 mod 8;
#X obj 30 93 outlet;
#X connect 0 0 1 0;
#X connect 1 0 2 0;
#X connect 1 0 4 0;
#X connect 2 0 3 0;
#X connect 3 0 1 1;
#X restore 255 212 pd count8;
#X obj 275 235 s thebeat;
#X floatatom 336 101 2 0 0 0 - - - 16;
#X text 314 126 beat #;
#X obj 102 124 hradio 32 1 0 8 empty empty empty 0 -10 0 12 #feffc6 #000000 #000000 0;
#X text 62 -1 aMetro;
#X obj 24 130 t a;
#X obj 57 131 t a;
#X text 121 97 start;
#X text 121 107 /stop;
#X text 279 103 bpm;
#X obj 173 103 tgl 16 0 clickon empty empty 18 8 0 9 #ff8300 #000000 #000000 0 1;
#X text 188 100 click;
#X obj 440 178 s bpm;
#X text 498 171 for elsewhere in the main patch;
#X obj 13 37 r mode;
#X obj 13 61 == 7;
#X obj 13 85 sel 1;
#X connect 1 0 14 0;
#X connect 2 0 6 0;
#X connect 3 0 15 0;
#X connect 4 0 5 0;
#X connect 5 0 3 0;
#X connect 6 0 7 0;
#X connect 6 0 8 0;
#X connect 8 0 9 0;
#X connect 8 0 10 0;
#X connect 10 0 12 0;
#X connect 14 0 6 0;
#X connect 15 0 2 0;
#X connect 15 0 21 0;
#X connect 23 0 24 0;
#X connect 24 0 25 0;
#X connect 25 0 1 0;
#X coords 0 -1 1 1 260 60 2 100 100;
