#N canvas 375 137 1670 1154 12;
#X text 5 57 aSeq;
#X obj 3 261 bang~;
#X obj 3 284 array get SEQ;
#X listbox 3 307 20 0 0 0 - - - 0;
#X obj 3 327 unpack 0 0 0 0 0 0 0 0, f 11;
#X obj 3 502 s \$0-seqv0;
#X obj 102 256 nbx 2 17 -1e+37 1e+37 0 0 empty \$0-seqv0 empty 0 -10 0 10 #fcfcfc #000000 #000000 0 256;
#X obj 132 256 nbx 2 17 -1e+37 1e+37 0 0 empty \$0-seqv1 empty 0 -10 0 10 #fcfcfc #000000 #000000 0 256;
#X obj 162 256 nbx 2 17 -1e+37 1e+37 0 0 empty \$0-seqv2 empty 0 -10 0 10 #fcfcfc #000000 #000000 0 256;
#X obj 192 256 nbx 2 17 -1e+37 1e+37 0 0 empty \$0-seqv3 empty 0 -10 0 10 #fcfcfc #000000 #000000 0 256;
#X obj 222 256 nbx 2 17 -1e+37 1e+37 0 0 empty \$0-seqv4 empty 0 -10 0 10 #fcfcfc #000000 #000000 0 256;
#X obj 252 256 nbx 2 17 -1e+37 1e+37 0 0 empty \$0-seqv5 empty 0 -10 0 10 #fcfcfc #000000 #000000 0 256;
#X obj 282 256 nbx 2 17 -1e+37 1e+37 0 0 empty \$0-seqv6 empty 0 -10 0 10 #fcfcfc #000000 #000000 0 256;
#X obj 312 256 nbx 2 17 -1e+37 1e+37 0 0 empty \$0-seqv7 empty 0 -10 0 10 #fcfcfc #000000 #000000 0 256;
#X obj 13 482 s \$0-seqv1;
#X obj 23 462 s \$0-seqv2;
#X obj 33 442 s \$0-seqv3;
#X obj 43 422 s \$0-seqv4;
#X obj 53 402 s \$0-seqv5;
#X obj 63 382 s \$0-seqv6;
#X obj 73 362 s \$0-seqv7;
#X msg 86 48 \; SEQ 0 60 62 64 65 67 69 71 72;
#X msg 150 9 \; SEQ 0 0 0 0 0 0 0 0 0;
#X obj 85 24 loadbang;
#X obj 131 115 cnv 19 29 138 empty bt1 empty 20 12 0 12 #d8fcd8 #fcfcfc 0;
#X obj 161 115 cnv 19 29 138 empty bt2 empty 20 12 0 12 #d8fcd8 #fcfcfc 0;
#X obj 191 115 cnv 19 29 138 empty bt3 empty 20 12 0 12 #d8fcd8 #fcfcfc 0;
#X obj 221 115 cnv 19 29 138 empty bt4 empty 20 12 0 12 #d8fcd8 #fcfcfc 0;
#X obj 251 115 cnv 19 29 138 empty bt5 empty 20 12 0 12 #d8fcd8 #fcfcfc 0;
#X obj 281 115 cnv 19 29 138 empty bt6 empty 20 12 0 12 #d8fcd8 #fcfcfc 0;
#X obj 311 115 cnv 19 29 138 empty bt7 empty 20 12 0 12 #d8fcd8 #fcfcfc 0;
#X obj 101 115 cnv 19 29 138 empty bt0 empty 20 12 0 12 #d8fcd8 #fcfcfc 0;
#N canvas 0 22 450 278 (subpatch) 0;
#X array SEQ 8 float 3;
#A 0 60 62 64 65 67 69 71 72;
#X coords 0 96 8 36 240 140 1 0 0;
#X restore 101 114 graph;
#X connect 1 0 2 0;
#X connect 2 0 3 0;
#X connect 3 0 4 0;
#X connect 4 0 5 0;
#X connect 4 1 14 0;
#X connect 4 2 15 0;
#X connect 4 3 16 0;
#X connect 4 4 17 0;
#X connect 4 5 18 0;
#X connect 4 6 19 0;
#X connect 4 7 20 0;
#X connect 23 0 21 0;
#X coords 0 -1 1 1 246 174 2 100 100;
