#N canvas 0 44 2056 1200 12;
#X obj 70 455 adc~ 1;
#X text 17 30 Audio journal patch;
#X obj 103 166 bng 19 250 50 0 ajrecord empty empty 0 -10 0 12 #ff0400 #000000 #000000;
#X text 124 166 record;
#X obj 151 543 writesf~ 1;
#X msg 195 300 start;
#X obj 103 188 bng 19 250 50 0 ajstop empty empty 0 -10 0 12 #bbbbbb #000000 #000000;
#X msg 268 419 set \$1;
#X obj 258 453 makefilename not-set-yet;
#X symbolatom 268 394 14 0 0 0 - - - 0;
#X symbolatom 258 482 20 0 0 0 - - - 0;
#X obj 258 282 bng 19 250 50 0 empty empty empty 0 -10 0 12 #fcfcfc #000000 #000000;
#N canvas 179 223 757 674 counter 0;
#X obj 37 37 inlet;
#X obj 37 60 f;
#X msg 86 38 0;
#X obj 37 136 outlet;
#X obj 87 65 + 1;
#X connect 0 0 1 0;
#X connect 1 0 4 0;
#X connect 1 0 3 0;
#X connect 2 0 1 1;
#X connect 4 0 1 1;
#X restore 258 305 pd counter;
#X floatatom 258 329 5 0 0 0 - - - 0;
#X obj 346 169 s participant;
#X obj 354 325 r participant;
#X obj 346 142 symbol;
#X obj 268 365 makefilename %s.journal.%%s;
#X listbox 253 125 11 0 0 0 - - - 0;
#X text 627 28 PLEASE ENTER YOUR PARTICIPANT ID;
#X text 627 48 e.g. "P001";
#X obj 253 48 loadbang;
#X obj 355 42 bng 19 250 50 0 empty empty empty 0 -10 0 12 #fcfcfc #000000 #000000;
#X obj 195 255 t b b, f 8;
#X msg 259 505 open -bytes 2 audiojournalfiles/\$1;
#X msg 124 302 stop;
#X text 17 49 v.0.2;
#X text 124 188 stop;
#X obj 195 232 r ajrecord;
#X obj 123 232 r ajstop;
#X obj 195 277 delay 5;
#X symbolatom 169 188 22 0 0 0 - - - 0;
#X obj 253 80 symbol yourID;
#X text 104 122 Click and type your participant number->, f 20;
#X connect 0 0 4 0;
#X connect 5 0 4 0;
#X connect 7 0 8 0;
#X connect 8 0 10 0;
#X connect 9 0 7 0;
#X connect 10 0 24 0;
#X connect 10 0 31 0;
#X connect 11 0 12 0;
#X connect 12 0 13 0;
#X connect 13 0 8 0;
#X connect 15 0 17 0;
#X connect 16 0 14 0;
#X connect 17 0 9 0;
#X connect 18 0 16 0;
#X connect 21 0 32 0;
#X connect 22 0 32 0;
#X connect 23 0 30 0;
#X connect 23 1 11 0;
#X connect 24 0 4 0;
#X connect 25 0 4 0;
#X connect 28 0 23 0;
#X connect 29 0 25 0;
#X connect 30 0 5 0;
#X connect 32 0 18 0;
#X coords 0 -1 1 1 236 110 1 100 100;
