#N canvas 513 161 1451 1135 12;
#X obj 102 102 bng 19 250 50 0 empty empty empty 0 -10 0 12 #fcfcfc #000000 #000000;
#X msg 146 -28 1;
#X obj 146 -5 tgl 19 0 empty empty empty 0 -10 0 12 #fcfcfc #000000 #000000 0 1;
#X obj 108 27 spigot;
#X floatatom 177 103 2 0 0 0 - - - 0;
#X obj 108 50 t f f b;
#X msg 167 49 0;
#X obj 245 -18 loadbang;
#X obj 245 44 symbol \$1;
#X listbox 124 103 7 0 0 0 - - - 0;
#X obj 816 282 s \$1mn;
#X obj 62 0 r rawnote;
#X msg 245 109 1;
#X obj 124 291 pack 0 0, f 18;
#X floatatom 245 202 5 0 0 0 - - - 0;
#X msg 287 109 2;
#X msg 330 109 3;
#X msg 373 109 4;
#X msg 415 109 5;
#X listbox 276 66 20 0 0 0 - - - 0;
#X obj 354 13 bng 19 250 50 0 empty empty empty 0 -10 0 12 #fcfcfc #000000 #000000;
#X msg 124 314 \; mapkey \$1 \$2;
#X text 868 284 NO LONGER NEEDED.;
#X obj 40 101 bng 19 250 50 0 empty empty empty 0 -10 0 12 #fcfcfc #000000 #000000;
#X obj 40 245 f;
#X obj 40 269 tabread modesmidimap;
#X floatatom 40 293 5 0 0 0 - - - 0;
#X obj 245 13 t b b;
#X text 379 16 TEST;
#X obj 245 86 select PLAY REC DATA SELECT COPY CLEAR STST;
#X msg 458 109 6;
#X msg 500 109 7;
#X connect 0 0 1 0;
#X connect 1 0 2 0;
#X connect 2 0 3 1;
#X connect 3 0 5 0;
#X connect 4 0 10 0;
#X connect 5 0 23 0;
#X connect 5 1 13 0;
#X connect 5 2 6 0;
#X connect 6 0 2 0;
#X connect 7 0 27 0;
#X connect 8 0 9 0;
#X connect 8 0 19 0;
#X connect 8 0 29 0;
#X connect 11 0 3 0;
#X connect 12 0 14 0;
#X connect 13 0 21 0;
#X connect 14 0 13 1;
#X connect 14 0 24 1;
#X connect 15 0 14 0;
#X connect 16 0 14 0;
#X connect 17 0 14 0;
#X connect 18 0 14 0;
#X connect 20 0 8 0;
#X connect 23 0 24 0;
#X connect 24 0 25 0;
#X connect 25 0 26 0;
#X connect 26 0 4 0;
#X connect 27 0 23 0;
#X connect 27 1 8 0;
#X connect 29 0 12 0;
#X connect 29 1 15 0;
#X connect 29 2 16 0;
#X connect 29 3 17 0;
#X connect 29 4 18 0;
#X connect 29 5 30 0;
#X connect 29 6 31 0;
#X connect 30 0 14 0;
#X connect 31 0 14 0;
#X coords 0 -1 1 1 96 24 2 100 100;
