#N canvas 36 418 1113 663 12;
#X obj 296 73 symbol \$1;
#X listbox 295 102 6 0 0 0 - - - 0;
#X obj 725 57 s data\$1;
#X msg 769 11 0 1 1 1 1 1 1 1 1;
#X msg 726 -43 0 0 0 0 0 0 0 0 0;
#X msg 784 35 0 1 0 1 0 1 0 1 0;
#X msg 794 53 0 0 1 0 1 0 1 1;
#X obj 296 49 loadbang;
#X obj 9 -124 bng 19 250 50 0 empty empty empty 0 -10 0 12 #fcfcfc #000000 #000000;
#X obj 178 -30 tgl 19 0 empty empty empty 0 -10 0 12 #fcfcfc #000000 #000000 0 1;
#X obj 101 -1 spigot, f 11;
#X obj 101 -54 r copydata;
#X obj 101 27 bng 19 250 50 0 empty empty empty 0 -10 0 12 #fcfcfc #000000 #000000;
#X obj 101 51 array get DATA;
#X obj 101 75 array set data\$1;
#X obj 95 -110 array define data\$1 8;
#X text 179 -64 if selected \, allows copy to this local array, f 24;
#X obj 726 -67 loadbang;
#X text 794 -69 clear array on load;
#X text 95 -131 The local array;
#N canvas 179 223 450 300 updatetoggles 0;
#X listbox 68 65 20 0 0 0 - - - 0;
#X obj 68 85 unpack 0 0 0 0 0 0 0 0, f 11;
#X obj 78 240 s data8vav1;
#X obj 138 120 s data\$1v7;
#X obj 128 140 s data\$1v6;
#X obj 118 160 s data\$1v5;
#X obj 108 180 s data\$1v4;
#X obj 98 200 s data\$1v3;
#X obj 88 220 s data\$1v2;
#X obj 68 260 s data\$1v0;
#X obj 68 42 array get data\$1;
#X obj 67 19 bang~;
#X text 111 18 update display toggles above;
#X connect 0 0 1 0;
#X connect 1 0 9 0;
#X connect 1 1 2 0;
#X connect 1 2 8 0;
#X connect 1 3 7 0;
#X connect 1 4 6 0;
#X connect 1 5 5 0;
#X connect 1 6 4 0;
#X connect 1 7 3 0;
#X connect 10 0 0 0;
#X connect 11 0 10 0;
#X restore 101 248 pd updatetoggles;
#N canvas 208 252 243 212 sendarraydatatosynth 1;
#X obj 37 25 r thebeat;
#X floatatom 37 73 5 0 0 0 - - - 0;
#X floatatom 110 26 5 0 0 0 - - - 0;
#X obj 37 96 * 1;
#X obj 37 50 tabread data\$1;
#X obj 36 123 s \$1;
#X connect 0 0 2 0;
#X connect 0 0 4 0;
#X connect 1 0 3 0;
#X connect 3 0 5 0;
#X connect 4 0 1 0;
#X restore 101 282 pd sendarraydatatosynth;
#X obj 390 -114 r selalg;
#X listbox 410 -90 12 0 0 0 - - - 0;
#X obj 390 -60 sel \$1;
#X msg 390 -36 1;
#X msg 428 -35 0;
#X obj 390 -12 tgl 19 0 empty empty empty 0 -10 0 12 #fcfcfc #000000 #000000 0 1;
#X obj 611 341 cnv 19 167 40 empty \$0-seldisplay empty 2 16 1 30 #fcfcfc #404040 0;
#X obj 456 69 sel 0 1;
#X msg 680 232 color 0;
#X msg 457 184 label \, color 0, f 9;
#X obj 455 236 s \$1-seldisplay;
#X obj 102 101 cnv 19 167 22 empty \$1-seldisplay SELECTED 2 12 1 18 #fcfcc8 #404040 0;
#X obj 101 124 cnv 19 29 30 empty bt0 empty 20 12 0 12 #d8fcd8 #fcfcfc 0;
#X obj 131 124 cnv 19 29 30 empty bt1 empty 20 12 0 12 #fc2828 #fcfcfc 0;
#X obj 161 124 cnv 19 29 30 empty bt2 empty 20 12 0 12 #d8fcd8 #fcfcfc 0;
#X obj 191 124 cnv 19 29 30 empty bt3 empty 20 12 0 12 #d8fcd8 #fcfcfc 0;
#X obj 221 124 cnv 19 29 30 empty bt4 empty 20 12 0 12 #d8fcd8 #fcfcfc 0;
#X obj 251 124 cnv 19 29 30 empty bt5 empty 20 12 0 12 #d8fcd8 #fcfcfc 0;
#X obj 281 124 cnv 19 29 30 empty bt6 empty 20 12 0 12 #d8fcd8 #fcfcfc 0;
#X obj 311 124 cnv 19 29 30 empty bt7 empty 20 12 0 12 #d8fcd8 #fcfcfc 0;
#X floatatom 678 177 5 0 0 0 - - - 0;
#X msg 678 203 label SELECTED \, color \$1;
#X msg 478 147 label SELECTED \, color 5, f 15;
#X obj 133 126 tgl 26 0 empty data\$1v1 empty 0 -10 0 12 #fcfcfc #000000 #000000 0 1;
#X obj 103 126 tgl 26 0 empty data\$1v0 empty 0 -10 0 12 #fcfcfc #000000 #000000 0 1;
#X obj 193 126 tgl 26 0 empty data\$1v3 empty 0 -10 0 12 #fcfcfc #000000 #000000 0 1;
#X obj 163 126 tgl 26 0 empty data\$1v2 empty 0 -10 0 12 #fcfcfc #000000 #000000 0 1;
#X obj 253 126 tgl 26 0 empty data\$1v5 empty 0 -10 0 12 #fcfcfc #000000 #000000 0 1;
#X obj 223 126 tgl 26 0 empty data\$1v4 empty 0 -10 0 12 #fcfcfc #000000 #000000 0 1;
#X obj 313 126 tgl 26 0 empty data\$1v7 empty 0 -10 0 12 #fcfcfc #000000 #000000 0 1;
#X obj 282 126 tgl 26 0 empty data\$1v6 empty 0 -10 0 12 #fcfcfc #000000 #000000 0 1;
#X text 676 148 DEBUG;
#X text 510 101 display selected or not;
#X obj 593 -30 r mode;
#X obj 593 -6 != 4;
#X obj 593 18 sel 1;
#X text 567 -68 unless mode is SELECT \, turn off, f 17;
#X msg 593 62 0;
#X obj 593 39 delay 30;
#X connect 0 0 1 0;
#X connect 3 0 2 0;
#X connect 4 0 2 0;
#X connect 5 0 2 0;
#X connect 6 0 2 0;
#X connect 7 0 0 0;
#X connect 9 0 10 1;
#X connect 10 0 12 0;
#X connect 11 0 10 0;
#X connect 12 0 13 0;
#X connect 13 0 14 0;
#X connect 17 0 4 0;
#X connect 22 0 23 0;
#X connect 22 0 24 0;
#X connect 24 0 25 0;
#X connect 24 1 26 0;
#X connect 25 0 27 0;
#X connect 26 0 27 0;
#X connect 27 0 29 0;
#X connect 27 0 9 0;
#X connect 29 0 31 0;
#X connect 29 1 44 0;
#X connect 30 0 32 0;
#X connect 31 0 32 0;
#X connect 42 0 43 0;
#X connect 43 0 32 0;
#X connect 44 0 32 0;
#X connect 55 0 56 0;
#X connect 56 0 57 0;
#X connect 57 0 60 0;
#X connect 59 0 27 0;
#X connect 60 0 59 0;
#X coords 0 -1 1 1 240 54 1 100 100;
