#N canvas 267 310 956 781 12;
#X obj 85 57 r thebeat;
#X msg 84 203 color \$1 0 0;
#X obj 85 95 == \$1;
#X obj 84 228 s bt\$1;
#X obj 85 120 sel 0 1, f 11;
#X msg 84 151 6;
#X msg 121 152 13;
#X floatatom 84 178 5 0 0 0 - - - 0;
#X connect 0 0 2 0;
#X connect 1 0 3 0;
#X connect 2 0 4 0;
#X connect 4 0 5 0;
#X connect 4 1 6 0;
#X connect 5 0 7 0;
#X connect 6 0 7 0;
#X connect 7 0 1 0;
