#N canvas 18 44 935 642 12;
#X obj 9 54 aMetro;
#X obj 72 154 aSeq;
#X obj 381 252 aData;
#X obj 521 442 databox mute;
#X obj 19 443 databox 8va;
#X obj 270 442 databox repeat;
#N canvas 842 150 1006 633 mode 0;
#X obj 102 -134 r mode;
#X text 105 100 mode;
#X listbox 104 124 8 0 0 0 - displaymode - 16;
#X obj 102 67 s displaymode;
#X msg 102 23 PLAY;
#X obj 102 46 symbol;
#X msg 112 2 REC;
#X msg 122 -18 DATA;
#X msg 132 -38 SELECT;
#X msg 142 -58 COPY;
#X obj 102 -110 sel 1 2 3 4 5 6;
#X obj 591 -122 cnv 19 150 230 empty empty empty 20 12 0 12 #feffc6 #404040 0;
#X obj 601 -88 r mode;
#X obj 601 -65 == 4;
#X obj 601 -41 tgl 19 0 empty empty empty 0 -10 0 12 #fcfcfc #000000 #000000 0 1;
#N canvas 106 519 620 528 count1to3 0;
#X obj 37 17 inlet;
#X obj 37 70 f;
#X obj 88 71 + 1;
#X obj 90 103 mod 3;
#X obj 37 93 + 1;
#X floatatom 37 116 5 0 0 0 - - - 0;
#X obj 37 158 outlet;
#X obj 46 48 bng 19 250 50 0 empty empty empty 0 -10 0 12 #fcfcfc #000000 #000000;
#X obj 114 17 inlet;
#X msg 114 41 0;
#X connect 0 0 1 0;
#X connect 1 0 2 0;
#X connect 1 0 4 0;
#X connect 2 0 3 0;
#X connect 3 0 1 1;
#X connect 4 0 5 0;
#X connect 5 0 6 0;
#X connect 7 0 1 0;
#X connect 8 0 9 0;
#X connect 9 0 1 1;
#X restore 601 1 pd count1to3;
#X floatatom 601 57 5 0 0 0 - - - 0;
#X obj 601 79 s selectedalg;
#X msg 665 34 0;
#X obj 628 -39 sel 1 0;
#X text 644 58 SELECT;
#X text 604 -118 SELECT mode;
#X obj 781 -122 cnv 19 150 230 empty empty empty 20 12 0 12 #feffc6 #404040 0;
#X obj 784 -22 r mode;
#X obj 784 1 == 5;
#X obj 784 28 sel 1;
#X obj 784 82 s copydata;
#X obj 794 52 bng 25 250 50 0 empty empty empty 0 -10 0 12 #c6ffc7 #000000 #000000;
#X text 784 -118 COPY mode;
#X obj 314 -125 cnv 19 150 230 empty empty empty 20 12 0 12 #feffc6 #404040 0;
#X text 327 -121 REC mode;
#X text 327 114 as long as toggle is on we record values, f 27;
#X obj 363 -30 tgl 19 0 empty empty empty 0 -10 0 12 #fcfcfc #000000 #000000 0 1;
#X obj 405 -4 r thebeat;
#X obj 324 73 tabwrite SEQ;
#X obj 324 -83 r midinote;
#X obj 324 -3 spigot;
#X text 323 149 (but maybe only record 8 from first note), f 27;
#X text 463 -82 FIX: when no note is entered \, put a zero for silnce., f 13;
#X obj 405 -83 r mode;
#X obj 405 -59 == 2;
#X text 332 -30 REC;
#X floatatom 415 20 5 0 0 0 - - - 0;
#X floatatom 335 21 5 0 0 0 - - - 0;
#X obj 338 227 array get SEQ;
#X listbox 338 251 33 0 0 0 - - - 0;
#X obj 324 49 pipe 100;
#X text 421 50 <-- needed in case note is a bit early, f 19;
#X text 397 199 troubleshoot;
#X obj 338 198 --bang~;
#N canvas 759 73 1297 1010 playseq 0;
#X obj 156 112 tgl 19 0 empty empty empty 0 -10 0 12 #fcfcfc #000000 #000000 0 1;
#X text 201 106 FIX: when no note is entered \, put a zero for silnce.;
#X obj 48 214 r thebeat;
#X obj 48 236 t a a, f 13;
#X obj 48 817 *~, f 12;
#X msg 151 801 \$1 5;
#X obj 151 824 line~;
#X obj 48 853 *~, f 15;
#X obj 48 772 osc~;
#X obj 48 530 mtof;
#X obj 48 794 *~ 0.03;
#X obj 129 775 *~;
#X obj 48 272 tabread SEQ;
#X floatatom 48 295 5 0 0 0 - - - 0;
#X obj 48 354 + 0;
#X obj 316 208 r 8va;
#X text 295 179 RECEIVED FROM the 8va algorithm below;
#X floatatom 316 265 5 0 0 0 - - - 0;
#X obj 300 563 r repeat;
#X obj 264 616 spigot;
#X obj 300 587 tgl 19 0 empty empty empty 0 -10 0 12 #fcfcfc #000000 #000000 0 1;
#X obj 316 238 * 12;
#X obj 220 933 dac~ 1 2;
#X obj 218 896 +~;
#X obj 48 686 t a b, f 12;
#X obj 343 756 line~;
#X obj 263 825 *~, f 12;
#X msg 366 809 \$1 5;
#X obj 366 832 line~;
#X obj 263 861 *~, f 15;
#X obj 263 780 osc~;
#X obj 263 802 *~ 0.03;
#X msg 341 716 1 \, 0 360;
#X obj 344 783 *~;
#X obj 263 694 t a b, f 12;
#X obj 420 599 r bpm;
#X floatatom 420 647 5 0 0 0 - - - 0;
#X obj 420 623 expr 30000/$f1;
#X obj 264 640 pipe;
#X floatatom 48 656 5 0 0 0 - - - 0;
#X floatatom 319 663 5 0 0 0 - - - 0;
#X obj 154 32 loadbang;
#X msg 154 56 1;
#N canvas 237 281 450 300 mute 0;
#X obj 47 48 inlet;
#X obj 165 49 inlet;
#X obj 46 105 spigot;
#X obj 165 73 == 0;
#X obj 165 97 tgl 19 0 empty empty empty 0 -10 0 12 #fcfcfc #000000 #000000 0 1;
#X obj 46 129 outlet;
#X obj 47 79 pipe 3;
#X connect 0 0 6 0;
#X connect 1 0 3 0;
#X connect 2 0 5 0;
#X connect 3 0 4 0;
#X connect 4 0 2 1;
#X connect 6 0 2 0;
#X restore 48 583 pd mute;
#X obj 107 549 r mute;
#X text 638 225 if mode is REC \, disable sequence playing synth \, route midinote to synth;
#X obj 140 338 r mode;
#X obj 47 456 spigot;
#X obj 170 456 spigot, f 12;
#X obj 86 407 != 2;
#X floatatom 643 262 5 0 0 0 - - - 0;
#X obj 643 285 s mode;
#X floatatom 150 361 5 0 0 0 - - - 0;
#X obj 86 431 tgl 19 0 empty empty empty 0 -10 0 12 #fcfcfc #000000 #000000 0 1;
#X obj 252 408 == 2;
#X obj 252 431 tgl 19 0 empty empty empty 0 -10 0 12 #fcfcfc #000000 #000000 0 1;
#X text 171 548 MODE MUTE;
#X text 304 536 MODE REPEAT;
#X obj 171 407 r midinote;
#X text 190 339 rec mode: disable seq \, enable keys, f 19;
#X text 103 113 SYNTH;
#X obj 170 480 mtof;
#X obj 49 618 pipe 5;
#X obj 121 583 tgl 19 0 empty empty empty 0 -10 0 12 #fcfcfc #000000 #000000 0 1;
#X obj 238 589 pipe 3;
#X obj 48 321 pipe 5;
#X obj 128 748 vline~;
#X msg 126 708 1 1 \, 0 360 1;
#X connect 0 0 5 0;
#X connect 0 0 27 0;
#X connect 2 0 3 0;
#X connect 3 0 12 0;
#X connect 4 0 7 0;
#X connect 5 0 6 0;
#X connect 6 0 7 1;
#X connect 7 0 23 0;
#X connect 8 0 10 0;
#X connect 9 0 43 0;
#X connect 10 0 4 0;
#X connect 11 0 4 1;
#X connect 12 0 13 0;
#X connect 13 0 65 0;
#X connect 14 0 47 0;
#X connect 15 0 21 0;
#X connect 17 0 14 1;
#X connect 18 0 20 0;
#X connect 19 0 38 0;
#X connect 20 0 19 1;
#X connect 21 0 17 0;
#X connect 23 0 22 0;
#X connect 23 0 22 1;
#X connect 24 0 8 0;
#X connect 24 1 67 0;
#X connect 25 0 33 0;
#X connect 25 0 33 1;
#X connect 26 0 29 0;
#X connect 27 0 28 0;
#X connect 28 0 29 1;
#X connect 29 0 23 1;
#X connect 30 0 31 0;
#X connect 31 0 26 0;
#X connect 32 0 25 0;
#X connect 33 0 26 1;
#X connect 34 0 30 0;
#X connect 34 1 32 0;
#X connect 35 0 37 0;
#X connect 36 0 38 1;
#X connect 37 0 36 0;
#X connect 38 0 34 0;
#X connect 38 0 40 0;
#X connect 39 0 24 0;
#X connect 39 0 64 0;
#X connect 41 0 42 0;
#X connect 42 0 0 0;
#X connect 43 0 62 0;
#X connect 44 0 43 1;
#X connect 44 0 63 0;
#X connect 46 0 52 0;
#X connect 47 0 9 0;
#X connect 48 0 61 0;
#X connect 49 0 53 0;
#X connect 50 0 51 0;
#X connect 52 0 49 0;
#X connect 52 0 54 0;
#X connect 53 0 47 1;
#X connect 54 0 55 0;
#X connect 55 0 48 1;
#X connect 58 0 48 0;
#X connect 61 0 39 0;
#X connect 62 0 39 0;
#X connect 64 0 19 0;
#X connect 65 0 14 0;
#X connect 66 0 11 0;
#X connect 66 0 11 1;
#X connect 67 0 66 0;
#X coords 0 -1 1 1 85 34 2 100 100;
#X restore 335 -202 pd playseq;
#N canvas 411 364 533 280 CONCEPT 0;
#X text 42 27 We have a static tempo 8-count metronome that counts 0-7. It indexes a table that contains a sequence. Pitches are MIDI notes \, or 0 (silence). In REC mode \, user can keep overwriting the sequence by playing. NOT playing will overwrite note at that count with a silence. In DATA mode: once armed the DATAsequence can be overewritten. First note is “on” \, any other is off In ACTIVATE mode \, pressing a key on a beat switches the on/off state of that algorithm In SELECT STATE we enter which alg will receive the sequence in APPLY mode we write the DATAseq into that algorithm Optional: some way to NEGATE the sequence some way to ROTATE the sequence;
#X restore 60 -206 pd CONCEPT;
#N canvas 827 255 877 901 MIDIinput 0;
#X obj 20 17 notein;
#X obj 20 40 stripnote;
#X obj 292 334 s midinote;
#X floatatom 20 70 5 0 0 0 - - - 0;
#X floatatom 39 260 5 0 0 0 - - - 0;
#X obj 21 282 sel;
#X floatatom 80 260 5 0 0 0 - - - 0;
#X obj 62 282 sel;
#X floatatom 120 260 5 0 0 0 - - - 0;
#X obj 102 282 sel;
#X floatatom 293 311 5 0 0 0 - - - 0;
#X obj 62 69 s rawnote;
#X floatatom 159 260 5 0 0 0 - - - 0;
#X obj 141 282 sel;
#X floatatom 200 260 5 0 0 0 - - - 0;
#X obj 182 282 sel;
#X floatatom 240 260 5 0 0 0 - - - 0;
#X obj 222 282 sel;
#N canvas 924 44 683 970 TESTINGmodesbyname 0;
#X msg 130 53 symbol PLAY;
#X msg 140 83 symbol REC;
#X obj 124 120 s modetest;
#X obj 123 150 r modetest;
#X listbox 123 174 20 0 0 0 - - - 0;
#X obj 135 242 sel PLAY REC;
#X obj 135 266 bng 19 250 50 0 empty empty empty 0 -10 0 12 #fcfcfc #000000 #000000;
#X obj 175 266 bng 19 250 50 0 empty empty empty 0 -10 0 12 #fcfcfc #000000 #000000;
#X connect 0 0 2 0;
#X connect 1 0 2 0;
#X connect 3 0 4 0;
#X connect 4 0 5 0;
#X connect 5 0 6 0;
#X connect 5 1 7 0;
#X restore 49 712 pd TESTINGmodesbyname;
#X text 267 635 map to PLAY;
#X text 387 635 map to REC;
#X msg 398 666 50;
#X text 617 635 invoke PLAY;
#X text 737 635 invoke REC;
#X obj 628 690 array get modesmidimap;
#X floatatom 628 714 5 0 0 0 - - - 0;
#X text 273 58 mode numbers:;
#X text 272 88 2 REC;
#X text 272 102 3 DATA;
#X text 272 116 4 SELECT;
#X text 272 130 5 COPY;
#X msg 628 666 1;
#X msg 748 586 2;
#X obj 463 760 tabread modesmidimap;
#X floatatom 463 784 5 0 0 0 - - - 0;
#X obj 387 64 bng 19 250 50 0 empty empty empty 0 -10 0 12 #fcfcfc #000000 #000000;
#X obj 276 22 array define -k modesmidimap 8;
#A 0 47 36 38 40 41 43 45 47;
#X f 18;
#X obj 387 88 array get modesmidimap;
#X listbox 387 112 33 0 0 0 - - - 0;
#X obj 278 717 array set modesmidimap;
#X obj 278 690 unpack 0 0, f 11;
#X msg 278 666 48 1;
#X msg 422 50 \; modesmidimap const 0;
#X obj 518 253 array set modesmidimap;
#X obj 518 226 unpack 0 0, f 11;
#X obj 388 177 r mapkey;
#X text 457 176 [key \, modenum];
#X listbox 454 226 7 0 0 0 - - - 0;
#X text 272 74 1 PLAY;
#X text 423 30 clear;
#X text 390 154 MAP MIDI KEYS;
#X obj 416 13 bang~;
#X floatatom 20 447 5 0 0 0 - - - 0;
#X msg 21 304 1, f 2;
#X msg 62 304 2, f 2;
#X msg 102 304 3, f 2;
#X msg 141 304 4, f 2;
#X msg 182 304 5, f 2;
#X msg 222 304 6, f 2;
#X floatatom 21 370 5 0 0 0 - - - 0;
#X obj 21 398 s mode;
#X obj 20 424 r mode;
#X text 272 144 6 CLEAR;
#X text 272 157 7 STST;
#X floatatom 280 260 5 0 0 0 - - - 0;
#X obj 262 282 sel;
#X msg 262 304 7, f 2;
#X text 468 332 midimap doesn't save;
#X text 467 358 CHANGE to store the map in midimodesmap;
#X text 468 384 WHEN we store \, update the [r PLAYmn] bits.;
#X obj 388 200 t a a a, f 19;
#X obj 388 226 s updmap;
#X obj 39 93 r updmap;
#X obj 39 141 array get modesmidimap;
#X listbox 39 165 20 0 0 0 - - - 0;
#X msg 59 610 \; modesmidimap 0 0 1 2 3 4 5 6 7 8;
#X msg 39 117 1;
#X obj 39 187 unpack 0 0 0 0 0 0 0;
#X text 473 303 === FIXED? ===;
#X text 55 589 TEST;
#X obj 157 53 loadbang;
#X connect 0 0 1 0;
#X connect 0 1 1 1;
#X connect 1 0 3 0;
#X connect 3 0 5 0;
#X connect 3 0 11 0;
#X connect 4 0 5 1;
#X connect 5 0 53 0;
#X connect 5 1 7 0;
#X connect 6 0 7 1;
#X connect 7 0 54 0;
#X connect 7 1 9 0;
#X connect 8 0 9 1;
#X connect 9 0 55 0;
#X connect 9 1 13 0;
#X connect 10 0 2 0;
#X connect 12 0 13 1;
#X connect 13 0 56 0;
#X connect 13 1 15 0;
#X connect 14 0 15 1;
#X connect 15 0 57 0;
#X connect 15 1 17 0;
#X connect 16 0 17 1;
#X connect 17 0 58 0;
#X connect 17 1 65 0;
#X connect 24 0 25 0;
#X connect 31 0 24 0;
#X connect 31 0 33 0;
#X connect 32 0 24 0;
#X connect 33 0 34 0;
#X connect 35 0 37 0;
#X connect 37 0 38 0;
#X connect 40 0 39 0;
#X connect 40 1 39 1;
#X connect 41 0 40 0;
#X connect 44 0 43 0;
#X connect 44 1 43 1;
#X connect 45 0 70 0;
#X connect 51 0 35 0;
#X connect 53 0 59 0;
#X connect 54 0 59 0;
#X connect 55 0 59 0;
#X connect 56 0 59 0;
#X connect 57 0 59 0;
#X connect 58 0 59 0;
#X connect 59 0 60 0;
#X connect 61 0 52 0;
#X connect 64 0 65 1;
#X connect 65 0 66 0;
#X connect 65 1 10 0;
#X connect 66 0 59 0;
#X connect 70 0 71 0;
#X connect 70 1 47 0;
#X connect 70 2 44 0;
#X connect 72 0 76 0;
#X connect 73 0 74 0;
#X connect 74 0 77 0;
#X connect 76 0 73 0;
#X connect 77 0 4 0;
#X connect 77 1 6 0;
#X connect 77 2 8 0;
#X connect 77 3 12 0;
#X connect 77 4 14 0;
#X connect 77 5 16 0;
#X connect 77 6 64 0;
#X connect 80 0 76 0;
#X restore 140 -204 pd MIDIinput;
#N canvas 1366 399 511 456 click 0;
#X obj 9 8 r thebeat;
#X obj 9 51 sel 0;
#X obj 9 30 t a a, f 12;
#X msg 90 52 1 \, 0 60;
#X obj 90 75 line~;
#X msg 8 72 96;
#X msg 41 72 84;
#X obj 10 161 *~;
#X obj 10 210 dac~ 1 2;
#X obj 90 141 r clickon;
#X msg 90 164 \$1 5;
#X obj 90 187 line~;
#X obj 10 187 *~;
#X obj 10 116 osc~;
#X obj 10 94 mtof;
#X obj 10 138 *~ 0.03;
#X connect 0 0 2 0;
#X connect 1 0 5 0;
#X connect 1 1 6 0;
#X connect 2 0 1 0;
#X connect 2 1 3 0;
#X connect 3 0 4 0;
#X connect 4 0 7 1;
#X connect 5 0 14 0;
#X connect 6 0 14 0;
#X connect 7 0 12 0;
#X connect 9 0 10 0;
#X connect 10 0 11 0;
#X connect 11 0 12 1;
#X connect 12 0 8 0;
#X connect 12 0 8 1;
#X connect 13 0 15 0;
#X connect 14 0 13 0;
#X connect 15 0 7 0;
#X restore 240 -203 pd click;
#X obj 601 144 select 1 2 3;
#X obj 601 242 s selalg;
#X msg 601 218 symbol 8va;
#X msg 655 178 symbol mute;
#X msg 628 198 symbol repeat;
#N canvas 842 220 1079 961 lightupbackgrounds 0;
#X obj 362 228 cnv 19 29 30 empty bt0 empty 20 12 0 12 #d8fcd8 #fcfcfc 0;
#X obj 392 228 cnv 19 29 30 empty bt1 empty 20 12 0 12 #d8fcd8 #fcfcfc 0;
#X obj 422 228 cnv 19 29 30 empty bt2 empty 20 12 0 12 #d8fcd8 #fcfcfc 0;
#X obj 452 228 cnv 19 29 30 empty bt3 empty 20 12 0 12 #d8fcd8 #fcfcfc 0;
#X obj 248 65 lightup 0;
#X obj 248 85 lightup 1;
#X obj 248 105 lightup 2;
#X obj 248 125 lightup 3;
#X obj 248 145 lightup 4;
#X obj 248 165 lightup 5;
#X obj 248 185 lightup 6;
#X obj 248 205 lightup 7;
#X obj 492 228 cnv 19 29 30 empty bt4 empty 20 12 0 12 #d8fcd8 #fcfcfc 0;
#X obj 522 228 cnv 19 29 30 empty bt5 empty 20 12 0 12 #d8fcd8 #fcfcfc 0;
#X obj 552 228 cnv 19 29 30 empty bt6 empty 20 12 0 12 #fc2828 #fcfcfc 0;
#X obj 582 228 cnv 19 29 30 empty bt7 empty 20 12 0 12 #d8fcd8 #fcfcfc 0;
#X msg 157 537 \; bt0 color 6 0 0;
#X msg 157 578 \; bt1 color 6 0 0;
#X msg 157 617 \; bt2 color 6 0 0;
#X msg 157 657 \; bt3 color 6 0 0;
#X msg 157 697 \; bt4 color 6 0 0;
#X msg 157 737 \; bt5 color 6 0 0;
#X msg 157 777 \; bt6 color 6 0 0;
#X msg 157 817 \; bt7 color 6 0 0;
#X obj 88 503 bng 19 250 50 0 empty empty empty 0 -10 0 12 #fcfcfc #000000 #000000;
#X obj 170 4 r stst;
#X floatatom 220 355 5 0 0 0 - - - 0;
#X msg 217 387 \; bt0 color \$1 0 0;
#X obj 170 28 sel 0 1;
#X msg 165 58 5;
#X msg 201 59 6;
#X floatatom 165 82 5 0 0 0 - - - 0;
#X msg 37 122 \; bt0 color \$1 0 0;
#X msg 37 163 \; bt1 color \$1 0 0;
#X msg 37 202 \; bt2 color \$1 0 0;
#X msg 37 242 \; bt3 color \$1 0 0;
#X msg 37 282 \; bt4 color \$1 0 0;
#X msg 37 322 \; bt5 color \$1 0 0;
#X msg 37 362 \; bt6 color \$1 0 0;
#X msg 37 402 \; bt7 color \$1 0 0;
#X connect 24 0 16 0;
#X connect 24 0 17 0;
#X connect 24 0 18 0;
#X connect 24 0 19 0;
#X connect 24 0 21 0;
#X connect 24 0 22 0;
#X connect 24 0 23 0;
#X connect 24 0 20 0;
#X connect 25 0 28 0;
#X connect 26 0 27 0;
#X connect 28 0 29 0;
#X connect 28 1 30 0;
#X connect 29 0 31 0;
#X connect 30 0 31 0;
#X connect 31 0 32 0;
#X connect 31 0 33 0;
#X connect 31 0 34 0;
#X connect 31 0 35 0;
#X connect 31 0 36 0;
#X connect 31 0 37 0;
#X connect 31 0 38 0;
#X connect 31 0 39 0;
#X restore 61 -179 pd lightupbackgrounds;
#N canvas 795 231 226 314 remapkeys 1;
#N canvas 947 594 448 413 mapcommands 0;
#X text 103 102 MAP COMMANDS;
#X obj 103 119 midimap PLAY;
#X obj 103 143 midimap REC;
#X obj 103 168 midimap DATA;
#X obj 103 192 midimap SELECT;
#X obj 103 216 midimap COPY;
#X obj 103 240 midimap CLEAR;
#X obj 103 264 midimap STST;
#X msg 221 190 vis 1;
#X obj 221 214 s pd-remapkeys;
#X obj 220 158 r remapkeys;
#X text 220 123 make visible;
#X connect 8 0 9 0;
#X connect 10 0 8 0;
#X coords 0 -1 1 1 102 190 2 100 100;
#X restore 26 48 pd mapcommands;
#X coords 0 314 1 313 85 60 0;
#X restore 236 -177 pd remapkeys;
#X connect 0 0 10 0;
#X connect 4 0 5 0;
#X connect 5 0 3 0;
#X connect 6 0 5 0;
#X connect 7 0 5 0;
#X connect 8 0 5 0;
#X connect 9 0 5 0;
#X connect 10 0 4 0;
#X connect 10 1 6 0;
#X connect 10 2 7 0;
#X connect 10 3 8 0;
#X connect 10 4 9 0;
#X connect 12 0 13 0;
#X connect 13 0 14 0;
#X connect 13 0 19 0;
#X connect 15 0 16 0;
#X connect 16 0 17 0;
#X connect 16 0 54 0;
#X connect 18 0 16 0;
#X connect 19 0 15 0;
#X connect 19 1 18 0;
#X connect 19 1 15 1;
#X connect 23 0 24 0;
#X connect 24 0 25 0;
#X connect 25 0 26 0;
#X connect 25 0 27 0;
#X connect 32 0 36 1;
#X connect 33 0 34 1;
#X connect 33 0 42 0;
#X connect 35 0 36 0;
#X connect 36 0 43 0;
#X connect 36 0 46 0;
#X connect 39 0 40 0;
#X connect 40 0 32 0;
#X connect 44 0 45 0;
#X connect 46 0 34 0;
#X connect 49 0 44 0;
#X connect 54 0 56 0;
#X connect 54 1 58 0;
#X connect 54 2 57 0;
#X connect 56 0 55 0;
#X connect 57 0 55 0;
#X connect 58 0 55 0;
#X coords 0 -1 1 1 170 60 2 100 100;
#X restore 273 54 pd mode;
#X obj 9 3 cnv 19 800 40 empty empty Technology\ Probes\ Study\ (OU-0612) 2 18 0 24 #c6ffc7 #404040 0;
#X text 269 421 repeat note;
#X text 524 420 mute note;
#X text 21 419 octave up;
#X obj 448 83 bng 40 250 50 0 remapkeys empty empty 0 -10 0 12 #c7c6ff #000000 #000000;
#X text 447 45 remap MIDI keys, f 9;
#N canvas 179 223 450 300 dspon 0;
#X msg 161 103 dsp \$1;
#X text 185 74 turn DSP engine on/off;
#X obj 161 132 send pd;
#X obj 101 101 tgl 40 0 pd-dsp empty empty 0 -10 0 12 #c6ffc7 #000000 #000000 0 1;
#X connect 0 0 2 0;
#X connect 3 0 0 0;
#X coords 0 -1 1 1 42 42 2 100 100;
#X restore 530 85 pd dspon;
#X text 528 45 turn audio on, f 9;
#N canvas 672 38 677 1051 starthere 0;
#X obj 100 100 cnv 19 140 60 empty empty Instructions 36 12 0 14 #c7c6ff #404040 0;
#X obj 104 105 bng 25 250 50 0 empty empty empty 0 -10 0 12 #00ff04 #000000 #000000;
#X text 108 169 Thank you for participating in this study! Your contribution is very much appreciated!;
#X text 111 217 For this study you will need a MIDI controller (e.g. a MIDI keyboard.) If you have a MIDI foot controller \, you can use it alongside the keyboard., f 60;
#X text 111 297 First \, make sure that your MIDI controller(s) is connected to your computer. In the PD menu bar \, go to "Media" -> "MIDI Settings" \, and select it in the "Input Devices". If you want to add a foot controller \, click "Multiple Devices" and add it too.;
#X text 112 387 Once that's set up \, in the PD menu bar choose "Test audio and MIDI". You should see the "note on" button in the lower left light up when you press a key., f 60;
#X text 112 447 The first time you use this Study patch \, you will need to remap some keys on your keyboard or foot controller to commands in the software. Click on the lilac "remap MIDI keys" \, which brings up a remap window. Click the "map" button for each command \, and then press the corresponding MIDI key on your controller. You may want to put labels on your keys to remember which key does what ("play" \, "Rec" \, etc.), f 61;
#X text 112 577 Once you're ready the Study patch should be ready to go., f 60;
#X text 112 607 HOW THIS WORKS:, f 60;
#X text 112 637 What I want to research is how we can make small computer programmes by playing \, rather than using the keyboard. For this task \, once you're ready to do it \, the aim is to only use your MIDI controller to apply operations to the patch. Before your start you may decide if you want to hear a click or not (orange toggle) and change the tempo.;
#X text 112 747 To start: on your MIDI controller press the key you had mapped to STST. This switches between START and STOP., f 60;
#X text 112 787 The SEQ (yellow) box contains an array that contains a sequence of eight pitches. When started \, you should be able to hear it. You can overwrite it at any time by pressing the key you had mapped to REC \, and play it with your controller.;
#X text 112 858 The DATA box (white) contains a sequence of on/off states (the "data"). When you press the key you had assigned to DATA \, you can overwrite the data. The first key you press in that mode becomes "on" and any other key enters off. When you're done \, press the key you had mapped to "PLAY".;
#X text 112 938 The key you had mapped to SELECT switches between three simple transformations that can be applied to the pitches. Octave up plays the note in that index of the sequence an octave up if the switch is on. The second transformation allows a note to be repeated. The third transformation mutes that note.;
#X text 114 1030 You can copy the DATA to any of the transformation by pressing the key you had mapped to SELECT until the transformation you want is selected., f 60;
#X text 114 1080 Pressing the key you had mapped to COPY will copy the DATA into the transformation box., f 60;
#X text 114 1120 Pressing the key you had mapped to CLEAR will clear the data in the sequence.;
#X msg 106 1210 \; pd-starthere vis 1;
#X connect 1 0 17 0;
#X coords 0 -1 1 1 140 60 2 100 100;
#X restore 668 59 pd starthere;
